<svg xmlns="http://www.w3.org/2000/svg" width="256" height="256"><path fill-opacity=".016" d="M0 128.004v128.004l128.25-.254 128.25-.254.254-127.75L257.008 0H0v128.004m.485.496c0 70.4.119 99.053.265 63.672.146-35.38.146-92.98 0-128C.604 29.153.485 58.1.485 128.5" fill="#1976D2" fill-rule="evenodd"/><path fill-opacity=".346" d="M116.021 10.62c-12.571 2.34-31.416 10.223-42.834 17.918-1.822 1.228-6.21 5.029-9.75 8.447C56.354 43.824 55.265 47.265 59 51c3.067 3.067 6.366 2.45 12.211-2.283 23.147-18.742 48.697-26.972 74.039-23.848 16.38 2.019 34.455 8.936 47.888 18.323l5.638 3.94 13.362-4.213c7.349-2.318 14.649-4.86 16.222-5.649 3.286-1.649 3.366-1.859-2.737 7.23-3.431 5.111-3.665 5.763-1.576 4.401 3.694-2.408 15.897-16.828 16.595-19.611.835-3.326-1.082-7.127-4.19-8.308-2.709-1.03-11.552 1.063-27.397 6.484l-7.445 2.547-15.055-7.448c-19.361-9.578-30.167-12.476-48.803-13.088-9.457-.311-15.68.017-21.731 1.143m92.195 55.205c-6.028 2.157-9.42 4.979-11.66 9.698-1.339 2.822-1.556 9.79-1.556 49.992 0 46.122.028 46.762 2.176 50.585 3.068 5.459 8.324 8.765 15.923 10.017 20.883 3.439 31.355-5.183 38.399-31.617 4.094-15.362 4.601-45.341 1.023-60.5-3.116-13.201-9.627-22.936-18.075-27.026-6.512-3.152-19.093-3.704-26.23-1.149m-181.76 1.056c-7.042 3.198-13.805 11.977-18.437 23.928C2.804 104.266.762 116.041.79 132.5c.039 22.995 4.979 40.112 14.484 50.184 10.743 11.385 28.108 11.136 36.212-.519l3.014-4.335.305-47.665c.208-32.579-.043-48.857-.795-51.432-1.38-4.723-6.474-10.611-10.712-12.382-4.511-1.885-12.049-1.647-16.842.53m79.043-.019c-3.301.945-9.151 3.773-13 6.284-8.907 5.809-20.327 16.322-21.108 19.43-.969 3.865 3.725 10.853 8.601 12.804 5.214 2.086 7.537 2.017 12.828-.384 5.792-2.629 8.257-4.68 13.794-11.476 10.645-13.068 20.333-11.577 45.386 6.983 12.549 9.296 21.411 14.203 27.416 15.177l3.866.627-.484-10.047c-.411-8.545-.88-10.724-3.134-14.57-3.796-6.478-9.857-11.343-20.164-16.185-21.261-9.989-39.253-12.869-54.001-8.643m5.695 34.001c-9.482 9.701-15.818 13.113-24.379 13.127-7.375.013-10.383-1.196-15.565-6.256l-4.25-4.15v73.095l2.5 1.139c1.4.638 2.5 1.982 2.5 3.055 0 1.053 1.345 3.355 2.988 5.114 2.767 2.962 3.379 3.169 8.25 2.79 2.894-.225 6.083-.778 7.087-1.229 1.305-.586 1.77-.425 1.632.566-.468 3.351.231 5.228 2.966 7.963 3.365 3.365 9.161 3.965 14.021 1.452 2.827-1.462 2.848-1.45 3.487 1.957 1.168 6.221 8.423 9.36 14.859 6.428 2.065-.941 2.786-.684 5.396 1.926 3.227 3.227 8.648 4.795 12.893 3.73 3.898-.979 7.421-5.311 7.421-9.127 0-3.613-3.257-7.003-10.066-10.477-2.089-1.065-4.086-2.402-4.437-2.97-.794-1.285 8.902 2.952 17.287 7.555 6.841 3.754 9.868 4.197 14.018 2.051 4.002-2.069 6.214-4.925 6.85-8.846.786-4.845-1.671-8.183-8.531-11.588-10.299-5.112-16.569-8.605-21.619-12.044-4.315-2.939-4.59-3.309-2.002-2.693 1.65.392 5.7 1.837 9 3.211 17.936 7.467 19.301 7.824 23.055 6.033 4.379-2.088 7.436-7.051 7.441-12.08.003-3.221-.66-4.536-3.786-7.51l-3.79-3.606 3.024-4.302c2.571-3.659 3.08-5.419 3.4-11.754l.376-7.45-3.193-1.113c-8.457-2.949-22.046-10.563-33.202-18.605-13.503-9.733-17.373-11.839-23.583-12.832-4.12-.659-4.15-.641-12.048 7.44M42.753 207.25c-4.755 5.024-19.729 28.967-19.742 31.566-.006 1.273.455 3.186 1.024 4.25 2.034 3.799 6.714 2.435 26.46-7.709l18.77-9.644 5.117 2.658c2.815 1.462 7.97 4.183 11.456 6.047 15.615 8.347 35.804 12.267 56.662 11.003 19.908-1.207 36.645-6.985 54.323-18.754 15.551-10.353 19.305-16.061 13.542-20.594-4.405-3.465-7.48-2.69-17.096 4.311-11.699 8.517-21.406 13.229-33.338 16.181-31.786 7.865-54.607 4.048-82.336-13.77-3.248-2.087-6.751-3.795-7.785-3.795-1.034 0-6.641 2.542-12.46 5.65-11.642 6.217-11.774 6.159-7.102-3.094l1.991-3.944-2.23-1.806c-3.024-2.449-3.699-2.314-7.256 1.444" fill="#1976D2" fill-rule="evenodd"/><path fill-opacity=".354" d="M210.667 65.381c-8.947 2.503-14.108 8.256-15.178 16.919-.353 2.86-.495 24.325-.315 47.7l.326 42.5 2.373 3.817c1.305 2.1 4.192 5.021 6.415 6.492 3.768 2.494 4.79 2.675 15.126 2.683 9.964.007 11.522-.242 15.396-2.46 7.089-4.059 12.336-13.969 16.899-31.916 2.435-9.576 2.701-12.379 2.714-28.616.016-18.943-1.641-29.422-6.324-40.009-2.574-5.819-8.56-12.184-14.096-14.989-5.939-3.01-16.673-3.986-23.336-2.121M27.04 67.227C16.786 71.496 8.415 85.732 3.358 107.5c-2.804 12.072-2.554 39.96.458 51 3.036 11.129 8.43 21.699 13.124 25.717 4.311 3.69 11.921 6.796 16.632 6.788 8.96-.014 18.22-6.807 20.421-14.978.747-2.774 1.005-18.95.803-50.386L54.5 79.34l-3-4.83c-5.347-8.607-14.637-11.373-24.46-7.283m40.106 73.394-.355 35.349 2.478.942c1.363.518 2.75 2.027 3.083 3.353 1.983 7.903 8.974 10.277 18.648 6.331 1.164-.474 1.518.208 1.581 3.051.063 2.796.836 4.336 3.266 6.508 3.737 3.338 7.221 3.614 12.387.981 3.894-1.986 4.766-1.463 4.766 2.857 0 2.449 5.557 7.007 8.543 7.007 4.031 0 9.116-3.062 10.739-6.466 2.089-4.379 6.231-6.011 11.593-4.568 2.264.61 5.019 2.077 6.121 3.26 1.102 1.183 2.004 1.656 2.004 1.051 0-1.512-5.053-5.63-11.024-8.983-9.446-5.306-4.728-4.756 8.055.939l5.532 2.464-.391-3.346c-.769-6.587 1.655-10.84 7.279-12.773l3.594-1.236-5.272-2.813c-2.9-1.548-8.597-4.887-12.66-7.421-9.808-6.118-6.702-6.678 6.482-1.169 5.346 2.233 9.987 4.06 10.313 4.058.325-.002.592-3.489.592-7.75 0-12.345-2.319-14.704-13.155-13.379-7.803.954-16.674.163-20.345-1.814-1.375-.741-4.525-3.018-7-5.062-7.175-5.924-10.616-7.242-21.271-8.15-12.106-1.032-15.746-2.508-19.755-8.015-2.558-3.514-3.059-5.016-2.668-7.995.415-3.16.173-3.746-1.745-4.227-1.225-.308-4.215-2.309-6.644-4.447l-4.417-3.887-.354 35.35M90 123.895c0 2.094 6.668 4.439 14.72 5.176 4.521.414 9.584 1.433 11.25 2.264 3.003 1.498 3.03 1.487 3.03-1.221 0-5.907-1.547-6.582-15.917-6.943-8.709-.22-13.083.022-13.083.724m104.433 86.116c-15.316 11.605-31.141 17.709-52.004 20.058-22.447 2.528-41.107-2.116-63.013-15.682C75.47 211.943 71.095 210 69.54 210c-1.536 0-7.039 2.296-12.23 5.103-5.191 2.806-9.686 4.854-9.99 4.55-.304-.304.464-3.007 1.708-6.006 1.243-3 1.984-6.172 1.647-7.051-.946-2.465-6.265-2.04-8.187.654C36.097 216.21 23 237.652 23 239.156c0 2.371 3.465 5.844 5.83 5.844 1.006 0 10.18-4.275 20.385-9.5 10.205-5.225 19.442-9.5 20.527-9.5 1.084 0 5.748 2.165 10.365 4.81 9.59 5.497 18.321 9.123 28.393 11.794 10.639 2.82 41.673 2.629 53.523-.33 15.545-3.882 34.804-14.166 45.227-24.149 5.401-5.173 6.156-8.737 2.561-12.086-3.619-3.372-6.755-2.561-15.378 3.972" fill="#1976D2" fill-rule="evenodd"/><path fill-opacity=".406" d="M32.5 66.005c-2.2.34-5.404 1.359-7.12 2.265-18.405 9.717-29.79 57.075-21.434 89.163 5.75 22.081 15.488 32.696 30.124 32.834 7.601.071 13.331-3.121 17.389-9.689l3.041-4.922v-47.578c0-47.147-.02-47.615-2.206-51.702-2.603-4.866-7.379-9.143-11.121-9.96-1.47-.321-3.123-.683-3.673-.806-.55-.122-2.8.055-5 .395M203 204.798c-.825.259-4.425 2.608-8 5.218-13.978 10.206-22.406 14.242-38 18.197-11.668 2.96-35.922 3.177-47 .421-8.242-2.051-21.942-8.311-31.931-14.591-3.537-2.224-7.302-4.043-8.366-4.043-1.063 0-6.686 2.471-12.495 5.49-5.808 3.02-10.73 5.321-10.938 5.113-.208-.208.777-3.219 2.188-6.692 2.16-5.316 2.352-6.53 1.21-7.671-2.477-2.478-6.14-.463-9.767 5.374-1.871 3.01-6.213 9.75-9.651 14.979-7.022 10.681-8.197 15.751-4.009 17.3 3.266 1.209 5.548.313 25.439-9.976l18.012-9.317 9.188 5.224c20.157 11.46 32.505 14.679 56.12 14.628 19.948-.044 30.108-2.139 45.5-9.385 16.966-7.987 31.5-19.171 31.5-24.241 0-3.886-5.053-7.271-9-6.028" fill="#1976D2" fill-rule="evenodd"/></svg>